<svg version="1.1" id="Layer_1" xmlns="http://www.w3.org/2000/svg" xmlns:xlink="http://www.w3.org/1999/xlink" x="0px" y="0px"
	 width="482.09px" height="282.716px" viewBox="0 0 482.09 282.716" enable-background="new 0 0 482.09 282.716"
	 xml:space="preserve">
<g>
	<defs>
		<rect id="SVGID_1_" width="482.09" height="282.716"/>
	</defs>
	<clipPath id="SVGID_2_">
		<use xlink:href="#SVGID_1_"  overflow="visible"/>
	</clipPath>
	<path clip-path="url(#SVGID_2_)" d="M243.688,66.053l0.065,0.004c0.913,0.065,1.92,0.042,2.978-0.066l0.897-0.162
		c0.671-0.066,1.207-0.141,1.816-0.252l1.008-0.207c3.428-0.812,6.417-2.495,8.853-4.992c2.657-2.713,4.207-5.624,4.612-8.654
		l0.457-3.423c0.442-3.286-0.634-6.246-3.026-8.335c-1.54-1.34-3.466-2.099-5.721-2.254c-1.274-0.093-2.655,0.015-4.093,0.314
		c-3.538,0.731-6.591,2.406-9.327,5.117c-2.083,2.06-3.532,4.251-4.309,6.509c-0.402,0.944-3.605,8.741-0.544,13.216
		C238.248,64.174,240.07,65.785,243.688,66.053"/>
	<path clip-path="url(#SVGID_2_)" d="M480.28,95.46c-1.883-4.025-11.35-10.246-30.055-10.218
		c-33.046,0.049-63.117,12.393-83.99,23.675c-1.717,0.358-2.194-0.694-2.286-1.651c0.304-2.374,0.604-4.737,0.902-7.083
		c3.727-29.272,7.181-55.674,7.641-59.652l-0.134-0.103l0.182-1.22c0.102-0.667,0.214-1.352,0.334-2.046
		c0.048-0.647,1.948-28.794,15.101-27.492c12.801,1.269,9.411,22.761,8.412,29.256c-0.797,5.181-2.212,17.307-8.357,25.633
		c-0.055,0.075-0.107,0.147-0.16,0.222c-0.066,0.088-0.131,0.183-0.198,0.272c-1.024,1.391-2.02,2.5-2.911,3.403
		c-0.134,0.137-0.266,0.268-0.401,0.402c-0.509,0.499-0.979,0.93-1.39,1.308c-0.442,0.407-0.776,0.712-1.029,0.984
		c-0.834,0.901-1.69,1.723-2.521,2.52c-0.229,0.218,0.035,0.207-0.185,0.417l-0.396,0.409c0,0-2.247,1.932-1.711,5.183
		c0.534,3.252,4.31,1.105,6.607,0.248c0.209-0.078,0.488-0.152,0.79-0.223c11.643-6.664,32.917-21.421,34.89-42.667
		c3.98-42.875-33.801-36.853-35.46-36.626c-32.468,4.415-37.025,51.24-37.068,51.712c0.002,0.096-0.577,6.105-0.651,6.821
		c-0.114,1.174-0.726,6.63-1.567,14.181l-0.378,3.359c-1.624,14.505-2.982,26.461-4.096,36.198
		c-0.828,3.736-2.222,5.508-2.796,6.105c-9.83,7.401-25.276,17.687-35.199,17.688l-0.353-0.002
		c-4.722-0.257-8.235-1.796-10.49-4.574c-2.201-2.716-2.843-9.823-2.392-14.877c0.306-1.812,1.399-2.459,2.104-2.685
		c0.132-0.032,0.264-0.065,0.395-0.097c0.138-0.023,0.223-0.027,0.223-0.027l-0.003-0.027c8.191-2,18.044-4.232,24.156-5.886
		c4.228-1.146,7.938-2.309,10.555-4.924c2.118-2.116,3.537-5.949,4.602-12.43c1.62-9.85-0.338-20.798-4.876-25.89
		c-5.589-6.275-13.065-9.391-20.306-8.791c-22.655,1.879-31.574,18.847-36.677,41.723c-2.156,9.661-2.337,17.529-1.394,23.911
		l-0.007,0.002c0,0,0.596,2.275-2.165,5.698c-2.021,1.993-4.209,4.191-5.913,6.003l-0.005,0.002
		c-0.424,0.45-0.855,0.914-1.299,1.392c-6.882,7.44-5.992-0.641-5.992-0.641l0.275-2.114c0.27-2.435,0.583-5.213,0.909-8.089
		l0.015-0.149c0.314-2.754,0.713-6.296,1.085-9.66h-0.092c0.266-2.678,0.118-3.013,0.363-5.593l0.019-0.208
		c0.574-6.012,1.84-19.813,2.421-24.101c0.396-2.941-0.505-5.477-2.536-7.142c-1.471-1.198-3.12-1.618-5.35-1.36
		c-0.826,0.095-1.738,0.29-2.71,0.579c-0.581,0.172-9.825,2.75-10.858,11.518l-4.414,39.285c-0.011,0.073-0.599,3.132-1.127,7.227
		c-0.402,1.415-1.044,3.043-2.068,4.572c-1.512,1.81-3.24,3.805-5.066,5.919l-0.004,0.001c-0.424,0.49-0.857,0.996-1.3,1.516
		c-6.883,8.092-5.991-0.148-5.991-0.148l0.274-2.114c0.269-2.435,0.583-5.213,0.91-8.089l0.015-0.149
		c0.69-6.076,1.807-16,2.114-19.343l0.082-2.968c0.347-3.684,0.22-7.223-0.376-10.517c-0.642-3.546-1.956-6.64-3.907-9.194
		c-2.063-2.703-4.769-5.335-8.519-5.983c-16.021-2.765-24.787,9.743-24.787,9.743l0.565-4.759c0.2-1.872,0.401-3.676,0.548-4.898
		c0.543-4.461,2.376-26.816,2.654-29.38c0.296-2.713-0.657-5.134-2.687-6.823c-1.82-1.498-4.34-2.105-7.283-1.752
		c-0.329,0.04-0.662,0.088-1,0.152l-0.34,0.062c-3.298,0.602-9.674,4.245-10.33,10.136c-1.578,14.182-4.746,44.71-6.623,59.241
		c-1.133,8.765-2.236,17.301-3.185,24.996c-0.643,4.208-2.739,7.612-2.96,7.962c-5.092,6.455-11.454,13.452-19.768,18.267
		c-0.01,0.007-0.019,0.014-0.029,0.022c-7.961,5.833-21.117,7.029-24.559,7.248v0.002h-0.034c-0.523,0.032-0.819,0.043-0.819,0.043
		l-0.028-0.047c-21.85,0.038-27.588-23.272-23.036-65.31l-0.026-0.025l0.046-0.168l0.113-1.475c0,0,3.634,0.197,6.054,0.213
		l1.705-0.052c2.113-0.058,4.162-0.158,6.093-0.293c8.01-0.566,48.376-5.001,56.47-36.866l0.023-0.1
		c2.639-13.19-2.182-23-6.693-28.902c-6.255-8.188-15.805-13.941-24.922-15.017c-1.741-0.205-3.505-0.308-5.248-0.319
		c-22.302-0.133-38.283,20.02-39.821,22.2c-1.982,2.626-3.818,5.433-5.47,8.411c-5.561,9.218-12.689,23.216-16.736,39.687
		c-1.272-0.35-2.504-0.716-3.678-1.102C40.8,95.875,34.134,90.83,30.918,84.15c-2.691-5.59-2.815-12.038-0.364-19.16
		c2.132-6.195,6.459-9.245,11.153-10.925c1.18-0.91,2.15-2.089,2.157-3.522c0.016-3.681-6.347-3.899-6.347-3.899l0.076-0.12
		c-1.53-0.132-3.13-0.209-4.785-0.213C19.074,46.284,8.7,51.5,3.596,61.005c-3.861,7.188-4.642,14.911-2.202,21.746
		c2.964,8.295,10.529,15.002,21.882,19.396c7.45,2.883,17.521,5.254,29.329,6.922c-0.669,4.08-1.126,8.272-1.299,12.553
		c-1.35,33.465,5.909,50.933,18.377,61.876c1.084,0.967,2.186,1.847,3.301,2.667c0.054,0.04,0.109,0.083,0.165,0.124
		c0.324,0.233,0.646,0.469,0.972,0.693c1.181,0.83,2.395,1.627,3.646,2.383l-0.008-0.108c8.76,4.935,17.063,6.061,18.962,6.258
		c1.239,0.15,2.491,0.223,3.738,0.226h0.001c20.21,0.043,36.071-13.968,46.72-28.426l0.042,0.019c0,0,4.797-6.531,4.294,0.178
		c-0.019,0.262-0.023,0.483-0.02,0.685c-0.173,2.657,0.901,5.217,3.045,7.216c2.134,1.985,5.038,3.004,8.394,2.884
		c3.253-0.09,6.03-1.165,8.257-3.199c2.22-2.024,3.454-4.368,3.673-6.968c0.783-9.408,2.629-30.54,3.623-40.95
		c0.107-0.821,0.195-1.789,0.296-2.908c0.21-2.331,0.497-5.513,1.097-8.727l-0.01,0.013c0,0,4.15-17.096,13.6-17.33
		c8.902-0.221,6.324,12.421,5.996,13.886c-0.961,9.312-4.621,27.632-4.621,27.632s-4.547,24.34,0.811,27.935
		s13.615,4.014,24.779-8.43c2.674-2.98,4.787-5.352,6.46-7.241c1.109-0.855,2.404-1.267,3.294,0.29
		c0.084,0.32,0.173,0.632,0.275,0.919c0.102,0.198,0.23,0.423,0.382,0.66c0.006,0.012,0.013,0.021,0.02,0.032
		c0.514,0.796,1.329,1.746,2.576,2.516c5.359,2.761,13.184,2.098,23.483-9.381c3.506-3.91,7.551-8.544,10.681-12.154
		c1.269-1.118,3.272-2.036,4.903,1.068c0.34,0.648,0.663,1.086,0.966,1.368c3.979,5.838,8.677,8.378,10.366,8.838
		c2.046,0.559,4.274,0.887,6.627,0.975c1.87,0.068,3.87-0.01,5.93-0.235c3.335-0.37,6.525-1.078,9.475-2.108
		c7.673-2.679,17.274-7.607,25.55-12.971l0.025,0.027c0,0,6.96-4.849,6.424,0.147c-0.054,0.492-0.059,0.87-0.027,1.162
		c-1.069,9.312-1.593,13.991-1.629,15.06c0,0-5.252,53.509-17.675,54.01c-7.672,0.31-10.832-13.789-3.897-32.939
		c0.011-0.025,4.511-9.45,10.764-13.574c4.953-3.268,5.774-4.28,3.967-5.78c-1.806-1.5-14.224,1.802-20.323,3.166
		c-10.39,2.17-23.19,5.562-34.346,8.801l0.05-0.066c0,0-0.553,0.179-1.568,0.519c-9.375,2.767-18.734,5.925-27.73,9.55
		c-1.81,0.729-3.567,1.456-5.308,2.185c-18.847,7.104-39.818,17.997-55.026,27.265c-30.744,18.738-7.661,14.392-7.661,14.392
		s20.389-3.701,37.112-13.39c8.617-4.992,49.19-30.932,85.917-40.087l-0.007,0.02c0,0,1.511-0.332-0.495,2.36
		c-0.068,0.091-0.123,0.174-0.182,0.259c-2.511,3.301-19.737,23.332-7.787,39.291c3.621,4.833,10.013,8.429,17.378,8.789
		c0.398,0.02,0.795,0.031,1.199,0.035l0.629,0.008c18.02,0.079,33.86-10.388,39.211-24.92c0.526-1.439,1.131-2.914,1.681-4.497
		c3.998-11.522,6.381-35.265,9.617-59.387c0.395-1.152,1.465-3.433,4.072-5.144c28.981-13.403,64.229-25.395,79.294-12.895
		c15.143,12.564-13.326,23.277-37.504,29.195c-8.577,2.359-11.729,2.538-23.647,4.549c-5.917,1.151-11.178,1.994-15.092,2.564
		c-1.5,0.417-3.65,1.368-3.502,3.401c0.16,2.159,3.083,2.754,4.839,2.917c23.677-1.919,86.378-13.628,105.863-32.806
		c0,0,1.998-2.063,3.174-3.742C482.793,107.18,482.891,101.056,480.28,95.46 M85.044,97.892
		c7.155-36.171,24.443-52.016,24.443-52.016s4.066-4.559,8.578-4.68c0,0,5.055-0.485,8.583,4.407
		c4.867,6.748,8.212,20.605,4.644,33.124l-0.055,0.17c-7.975,19.839-25.345,23.729-37.718,24.934l-1.685,0.163
		c-0.396,0.048-0.792,0.085-1.185,0.116l-0.068,0.006v-0.002c-3.554,0.271-6.767-0.086-6.767-0.086l1.256-6.136H85.044z
		 M293.327,89.182c1.819-7.989,7.004-23.494,12.727-23.494l0.261,0.006c0.806,0.031,1.624,0.063,2.327,0.604
		c6.369,3.027,4.209,20.905,3.626,24.318c-0.084,0.492-0.171,0.999-0.256,1.512c-0.09,0.381-0.178,0.801-0.264,1.264
		c-0.953,5.194-3.407,7.515-4.75,8.428l-13.435,4.961c-0.136,0.026-0.306,0.07-0.556,0.151c-2.284,0.747-2.544-0.384-2.522-1.039
		l0.181-1.251C290.68,104.537,292.2,93.898,293.327,89.182"/>
	<path clip-path="url(#SVGID_2_)" d="M200.288,277.337h-5.194v-3.021h3.018c0.949,0,1.712-0.048,2.268-0.568
		c0.545-0.512,0.832-0.745,0.832-1.512c0-1.013-0.452-1.21-0.834-1.568c-0.554-0.517-1.317-0.565-2.266-0.565h-3.018v-2.801h5.194
		c1.159,0,1.857-0.425,2.236-0.781c0.546-0.511,0.835-0.756,0.835-1.523c0-1.014-0.453-1.651-0.836-2.01
		c-0.38-0.355-1.078-0.78-2.235-0.78h-8.265c-0.875,0-1.615,0.243-2.201,0.725c-0.793,0.652-0.959,1.378-0.959,1.873v15.028
		c0,0.495,0.167,1.223,0.96,1.875c0.583,0.479,1.323,0.723,2.2,0.723h8.265c1.159,0,1.857-0.424,2.236-0.779
		c0.546-0.512,0.835-1.188,0.835-1.955c0-1.016-0.453-1.223-0.835-1.578C202.145,277.761,201.447,277.337,200.288,277.337"/>
	<path clip-path="url(#SVGID_2_)" d="M355.915,277.337h-5.195v-3.021h3.019c0.949,0,1.711-0.048,2.269-0.568
		c0.545-0.512,0.832-0.745,0.832-1.512c0-1.013-0.453-1.21-0.834-1.568c-0.556-0.517-1.317-0.565-2.267-0.565h-3.019v-2.801h5.195
		c1.157,0,1.854-0.425,2.235-0.781c0.545-0.511,0.834-0.756,0.834-1.523c0-1.014-0.453-1.651-0.836-2.01
		c-0.381-0.355-1.078-0.78-2.233-0.78h-8.267c-0.875,0-1.615,0.243-2.201,0.725c-0.793,0.652-0.959,1.378-0.959,1.873v15.028
		c0,0.495,0.168,1.223,0.961,1.875c0.582,0.479,1.322,0.723,2.199,0.723h8.267c1.157,0,1.854-0.424,2.235-0.779
		c0.545-0.512,0.834-1.188,0.834-1.955c0-1.016-0.453-1.223-0.834-1.578C357.77,277.761,357.072,277.337,355.915,277.337"/>
	<path clip-path="url(#SVGID_2_)" d="M330.588,263.354c-0.281-0.443-0.853-1.027-1.99-1.304c-0.815-0.184-1.594-0.108-2.272,0.217
		c-0.914,0.44-1.276,1.077-1.414,1.513l-2.918,8.666l-2.996-8.735c-0.164-0.438-0.547-1.047-1.43-1.471
		c-0.683-0.327-1.437-0.406-2.265-0.212c-1.106,0.268-1.681,0.843-1.967,1.277c-0.552,0.831-0.492,1.564-0.322,2.1l5.744,15.209
		c0.187,0.597,0.588,1.104,1.187,1.506c0.584,0.389,1.278,0.588,2.062,0.588c0.76,0,1.442-0.195,2.03-0.578
		c0.619-0.402,1.03-0.912,1.199-1.457l5.668-15.307C331.049,264.903,331.11,264.18,330.588,263.354"/>
	<path clip-path="url(#SVGID_2_)" d="M173.936,273.036c-0.264-0.398-0.61-0.754-1.034-1.064c0.178-0.186,0.336-0.381,0.473-0.588
		c0.539-0.812,0.813-1.758,0.813-2.809v-0.192c0-0.786-0.157-1.554-0.467-2.284c-0.323-0.762-0.838-1.447-1.535-2.039
		c-0.678-0.577-1.543-1.037-2.571-1.369c-0.996-0.32-2.192-0.483-3.558-0.483h-4.412c-0.875,0-1.614,0.243-2.201,0.725
		c-0.792,0.652-0.958,1.378-0.958,1.873v14.892c0,0.467,0.153,1.172,0.879,1.871c0.586,0.564,1.373,0.863,2.28,0.863h5.03
		c1.495,0,2.718-0.15,3.742-0.463c1.062-0.324,1.933-0.775,2.587-1.342c0.682-0.59,1.17-1.287,1.451-2.072
		c0.252-0.709,0.38-1.454,0.38-2.217v-0.191C174.834,274.987,174.533,273.942,173.936,273.036 M163.99,266.952h2.009
		c1.314,0,1.942,0.242,2.237,0.445c0.236,0.162,0.478,0.399,0.478,0.934v0.627c0,0.376-0.121,0.644-0.393,0.872
		c-0.222,0.183-0.682,0.418-1.621,0.505l-0.018,0.002h-2.692V266.952z M169.394,276.335c0,0.44-0.153,0.741-0.512,1.006
		c-0.29,0.215-0.908,0.47-2.204,0.47h-2.75v-3.58h2.75c1.404,0,1.973,0.302,2.187,0.481c0.366,0.307,0.529,0.655,0.529,1.128
		V276.335z"/>
	<path clip-path="url(#SVGID_2_)" d="M239.917,273.037c-0.264-0.398-0.61-0.755-1.034-1.065c0.178-0.186,0.334-0.381,0.473-0.588
		c0.539-0.812,0.813-1.758,0.813-2.809v-0.192c0-0.786-0.157-1.554-0.467-2.284c-0.323-0.762-0.838-1.447-1.533-2.039
		c-0.68-0.576-1.545-1.037-2.573-1.369c-0.996-0.32-2.193-0.483-3.556-0.483h-4.412c-0.864,0-1.625,0.249-2.204,0.725
		c-0.791,0.653-0.957,1.379-0.957,1.873v14.892c0,0.467,0.153,1.17,0.879,1.871c0.586,0.564,1.375,0.863,2.282,0.863h5.029
		c1.494,0,2.717-0.15,3.742-0.463c1.059-0.322,1.93-0.773,2.586-1.342c0.682-0.588,1.17-1.285,1.451-2.072
		c0.252-0.71,0.381-1.455,0.381-2.217v-0.191C240.817,274.986,240.514,273.94,239.917,273.037 M229.97,266.952h2.011
		c1.313,0,1.941,0.242,2.236,0.445c0.236,0.162,0.478,0.399,0.478,0.934v0.627c0,0.377-0.122,0.646-0.396,0.874
		c-0.218,0.182-0.676,0.416-1.617,0.503l-0.018,0.002h-2.694V266.952z M235.375,276.335c0,0.44-0.153,0.741-0.512,1.006
		c-0.292,0.215-0.91,0.47-2.204,0.47h-2.75v-3.58h2.75c1.333,0,1.924,0.261,2.186,0.479c0.367,0.312,0.53,0.66,0.53,1.13V276.335z"
		/>
	<path clip-path="url(#SVGID_2_)" d="M270.617,278.64l-2.595-4.969c0.746-0.42,1.324-0.926,1.726-1.512
		c0.61-0.883,0.916-1.93,0.916-3.115v-0.193c0-0.956-0.157-1.844-0.468-2.637c-0.334-0.852-0.873-1.592-1.6-2.201
		c-0.709-0.595-1.636-1.055-2.754-1.366c-1.046-0.292-2.308-0.439-3.75-0.439h-4.146c-0.866,0-1.625,0.249-2.204,0.725
		c-0.791,0.653-0.959,1.379-0.959,1.873v15.222c0,0.478,0.159,1.189,0.913,1.873c0.582,0.528,1.359,0.808,2.25,0.808
		c0.854,0,1.572-0.233,2.134-0.693c0.612-0.497,0.937-1.138,0.937-1.85v-4.642h1.26l2.906,5.826l0.065,0.119
		c0.256,0.396,0.761,0.918,1.728,1.155c0.252,0.062,0.51,0.093,0.767,0.093c0.497,0,0.993-0.113,1.476-0.34l0.102-0.053
		c0.714-0.406,1.214-0.941,1.484-1.589C271.117,279.979,271.052,279.243,270.617,278.64 M265.177,269.399
		c0,0.439-0.168,0.75-0.561,1.037c-0.26,0.188-0.949,0.505-2.65,0.505h-1.693v-4.044h1.693c1.68,0,2.36,0.333,2.616,0.531
		c0.255,0.197,0.595,0.551,0.595,1.342V269.399z"/>
	<path clip-path="url(#SVGID_2_)" d="M301.407,279.185l-5.628-15.16c-0.188-0.603-0.599-1.112-1.219-1.516
		c-1.199-0.779-2.944-0.757-4.091,0.011c-0.604,0.403-1.002,0.909-1.168,1.437l-5.788,15.316c-0.146,0.469-0.207,1.203,0.346,2.034
		c0.289,0.435,0.864,1.009,1.979,1.278c0.285,0.067,0.57,0.102,0.847,0.102c0.496,0,0.969-0.107,1.405-0.315
		c0.883-0.423,1.265-1.033,1.445-1.511l0.778-2.311h4.364l0.748,2.257c0.146,0.46,0.509,1.099,1.423,1.536
		c0.678,0.324,1.413,0.41,2.295,0.212c1.116-0.271,1.685-0.854,1.965-1.298C301.636,280.432,301.57,279.708,301.407,279.185
		 M290.536,275.161l1.995-5.862l1.947,5.862H290.536z"/>
</g>
</svg>
