<svg version="1.1" xmlns="http://www.w3.org/2000/svg" xmlns:xlink="http://www.w3.org/1999/xlink" x="0px" y="0px"
	 width="36px" height="60px" viewBox="0 0 36 60" enable-background="new 0 0 36 60" xml:space="preserve">
<path d="M18,53.5L4.8,40.2c-1-1-2.6-1-3.6,0s-1,2.6,0,3.6l14.9,14.9c0.5,0.5,1.2,0.8,1.9,0.7c0.7,0,1.4-0.2,1.9-0.7l14.9-14.9
	c1-1,1-2.6,0-3.6s-2.6-1-3.6,0L18,53.5z"/>
<path d="M18,6.4l13.2,13.3c1,1,2.6,1,3.6,0s1-2.6,0-3.6L19.9,1.2c-0.5-0.5-1.2-0.8-1.9-0.7c-0.7,0-1.4,0.2-1.9,0.7L1.2,16.1
	c-1,1-1,2.6,0,3.6s2.6,1,3.6,0L18,6.4z"/>
</svg>
